<mxfile host="65bd71144e">
    <diagram id="D4J3AJxMe19T4933es7n" name="Page-1">
        <mxGraphModel dx="406" dy="500" grid="1" gridSize="10" guides="1" tooltips="1" connect="1" arrows="1" fold="1" page="1" pageScale="1" pageWidth="850" pageHeight="1100" math="0" shadow="0">
            <root>
                <mxCell id="0"/>
                <mxCell id="1" parent="0"/>
                <mxCell id="9" style="edgeStyle=none;html=1;entryX=0.5;entryY=0;entryDx=0;entryDy=0;" edge="1" parent="1" source="2" target="6">
                    <mxGeometry relative="1" as="geometry"/>
                </mxCell>
                <mxCell id="10" style="edgeStyle=none;html=1;entryX=0.5;entryY=0;entryDx=0;entryDy=0;" edge="1" parent="1" source="2" target="4">
                    <mxGeometry relative="1" as="geometry"/>
                </mxCell>
                <mxCell id="36" style="edgeStyle=none;html=1;entryX=0.5;entryY=0;entryDx=0;entryDy=0;" edge="1" parent="1" source="2" target="33">
                    <mxGeometry relative="1" as="geometry"/>
                </mxCell>
                <mxCell id="39" style="edgeStyle=none;html=1;entryX=0.5;entryY=0;entryDx=0;entryDy=0;" edge="1" parent="1" source="2" target="14">
                    <mxGeometry relative="1" as="geometry"/>
                </mxCell>
                <mxCell id="2" value="App" style="ellipse;whiteSpace=wrap;html=1;" vertex="1" parent="1">
                    <mxGeometry x="390" y="60" width="120" height="80" as="geometry"/>
                </mxCell>
                <mxCell id="4" value="Contact" style="ellipse;whiteSpace=wrap;html=1;" vertex="1" parent="1">
                    <mxGeometry x="130" y="350" width="120" height="80" as="geometry"/>
                </mxCell>
                <mxCell id="6" value="About" style="ellipse;whiteSpace=wrap;html=1;" vertex="1" parent="1">
                    <mxGeometry x="580" y="350" width="120" height="80" as="geometry"/>
                </mxCell>
                <mxCell id="17" value="Stretch Goal" style="edgeStyle=none;html=1;entryX=0.5;entryY=0;entryDx=0;entryDy=0;" edge="1" parent="1" source="14" target="30">
                    <mxGeometry relative="1" as="geometry">
                        <mxPoint x="525.5601037916397" y="693.4687867201353" as="targetPoint"/>
                    </mxGeometry>
                </mxCell>
                <mxCell id="20" value="filteredworkouts&lt;br&gt;search term for search input&lt;br&gt;setSearch term/ handlesearch" style="edgeStyle=none;html=1;entryX=0.5;entryY=0;entryDx=0;entryDy=0;" edge="1" parent="1" source="14" target="18">
                    <mxGeometry relative="1" as="geometry"/>
                </mxCell>
                <mxCell id="38" value="addWorkout callback" style="edgeStyle=none;html=1;" edge="1" parent="1" source="14" target="28">
                    <mxGeometry y="10" relative="1" as="geometry">
                        <mxPoint as="offset"/>
                    </mxGeometry>
                </mxCell>
                <mxCell id="14" value="WorkoutPage" style="ellipse;whiteSpace=wrap;html=1;" vertex="1" parent="1">
                    <mxGeometry x="340" y="350" width="120" height="80" as="geometry"/>
                </mxCell>
                <mxCell id="23" value="key, workout" style="edgeStyle=none;html=1;" edge="1" parent="1" source="18" target="22">
                    <mxGeometry relative="1" as="geometry"/>
                </mxCell>
                <mxCell id="18" value="WorkoutList" style="ellipse;whiteSpace=wrap;html=1;" vertex="1" parent="1">
                    <mxGeometry x="100" y="570" width="120" height="80" as="geometry"/>
                </mxCell>
                <mxCell id="22" value="WorkoutCard" style="ellipse;whiteSpace=wrap;html=1;" vertex="1" parent="1">
                    <mxGeometry x="100" y="730" width="120" height="80" as="geometry"/>
                </mxCell>
                <mxCell id="24" value="State:&lt;br&gt;workoutSearch,setWorkoutSearch&lt;br&gt;addWorkout,setAddWorkout" style="text;html=1;strokeColor=none;fillColor=none;align=center;verticalAlign=middle;whiteSpace=wrap;rounded=0;" vertex="1" parent="1">
                    <mxGeometry x="780" y="540" width="60" height="30" as="geometry"/>
                </mxCell>
                <mxCell id="26" value="fetch:workoutData" style="text;html=1;strokeColor=none;fillColor=none;align=center;verticalAlign=middle;whiteSpace=wrap;rounded=0;" vertex="1" parent="1">
                    <mxGeometry x="280" y="330" width="60" height="30" as="geometry"/>
                </mxCell>
                <mxCell id="27" value="State:&lt;br&gt;workouts,setWorkouts[]&lt;br&gt;deleteWorkout,setDeleteWorkout&lt;br&gt;search,setSearch" style="text;html=1;strokeColor=none;fillColor=none;align=center;verticalAlign=middle;whiteSpace=wrap;rounded=0;" vertex="1" parent="1">
                    <mxGeometry x="470" y="330" width="60" height="30" as="geometry"/>
                </mxCell>
                <mxCell id="28" value="AddWorkout" style="ellipse;whiteSpace=wrap;html=1;" vertex="1" parent="1">
                    <mxGeometry x="380" y="580" width="120" height="80" as="geometry"/>
                </mxCell>
                <mxCell id="30" value="EditWorkout" style="ellipse;whiteSpace=wrap;html=1;" vertex="1" parent="1">
                    <mxGeometry x="640" y="570" width="120" height="80" as="geometry"/>
                </mxCell>
                <mxCell id="33" value="Header" style="ellipse;whiteSpace=wrap;html=1;" vertex="1" parent="1">
                    <mxGeometry x="750" y="350" width="120" height="80" as="geometry"/>
                </mxCell>
                <mxCell id="37" value="Links for other pages and search forms" style="text;html=1;strokeColor=none;fillColor=none;align=center;verticalAlign=middle;whiteSpace=wrap;rounded=0;" vertex="1" parent="1">
                    <mxGeometry x="830" y="340" width="160" height="30" as="geometry"/>
                </mxCell>
                <mxCell id="40" value="Map workout cards" style="text;html=1;strokeColor=none;fillColor=none;align=center;verticalAlign=middle;whiteSpace=wrap;rounded=0;" vertex="1" parent="1">
                    <mxGeometry x="50" y="550" width="60" height="30" as="geometry"/>
                </mxCell>
                <mxCell id="42" value="addWorkout callback" style="text;html=1;strokeColor=none;fillColor=none;align=center;verticalAlign=middle;whiteSpace=wrap;rounded=0;" vertex="1" parent="1">
                    <mxGeometry x="290" y="375" width="60" height="30" as="geometry"/>
                </mxCell>
                <mxCell id="44" value="state:&lt;br&gt;formDatat,setFormData[&lt;br&gt;name:&quot;&quot;, image:&quot;&quot;,&lt;br&gt;description:&quot;&quot;,&lt;br&gt;]" style="text;html=1;strokeColor=none;fillColor=none;align=center;verticalAlign=middle;whiteSpace=wrap;rounded=0;" vertex="1" parent="1">
                    <mxGeometry x="500" y="580" width="60" height="30" as="geometry"/>
                </mxCell>
                <mxCell id="45" value="onChange:&lt;br&gt;event.target.value&lt;br&gt;onSubmit: Post fetch" style="text;html=1;strokeColor=none;fillColor=none;align=center;verticalAlign=middle;whiteSpace=wrap;rounded=0;" vertex="1" parent="1">
                    <mxGeometry x="310" y="590" width="60" height="30" as="geometry"/>
                </mxCell>
            </root>
        </mxGraphModel>
    </diagram>
</mxfile>